<svg width="94" height="64" viewBox="0 0 94 64" fill="none" xmlns="http://www.w3.org/2000/svg">
<path d="M18.6084 63.75L0.0839539 63.75L0.0839574 23.25L18.6084 23.25L18.6084 63.75Z" fill="#025BFF"/>
<path fill-rule="evenodd" clip-rule="evenodd" d="M78.1725 32C78.1725 22.7492 70.6633 15.25 61.4004 15.25C52.1374 15.25 44.6282 22.7492 44.6282 32C44.6282 41.2508 52.1374 48.75 61.4004 48.75C70.6633 48.75 78.1725 41.2508 78.1725 32ZM93.1923 32C93.1923 14.465 78.9586 0.249998 61.4004 0.249999C43.8421 0.249999 29.6084 14.465 29.6084 32C29.6084 49.535 43.8421 63.75 61.4004 63.75C78.9586 63.75 93.1923 49.535 93.1923 32Z" fill="#025BFF"/>
</svg>
