<svg width="358" height="64" viewBox="0 0 358 64" fill="none" xmlns="http://www.w3.org/2000/svg">
<path d="M24.522 64C21.2801 64 18.0972 63.763 14.9732 63.2889C11.8492 62.8148 8.78418 62.163 5.77807 61.3333L0.384766 59.8222L2.86038 47.8222L9.84516 48.8889C11.9082 49.1852 14.2954 49.4815 17.0068 49.7778C19.7771 50.0148 22.4885 50.1333 25.1409 50.1333C28.206 50.1333 30.4164 49.7185 31.772 48.8889C33.1867 48 33.894 46.7556 33.894 45.1556C33.894 44.2667 33.6582 43.4963 33.1867 42.8444C32.7151 42.1926 31.6247 41.5111 29.9153 40.8C28.2649 40.0296 25.6714 39.1111 22.1348 38.0444C17.2425 36.563 13.3523 35.0519 10.4641 33.5111C7.57584 31.9111 5.51283 29.9852 4.27502 27.7333C3.09615 25.4222 2.50672 22.4889 2.50672 18.9333C2.50672 14.4889 3.59717 10.8741 5.77807 8.08889C8.01792 5.3037 11.0535 3.25926 14.8848 1.95556C18.7751 0.651852 23.1369 0 27.9702 0C30.6816 0 33.4519 0.207409 36.2812 0.622226C39.1694 1.03704 42.0282 1.62963 44.8574 2.4L49.1014 3.46667L46.891 15.2889L40.1715 14.4889C38.58 14.3111 36.7528 14.1333 34.6897 13.9556C32.6857 13.7778 30.4458 13.6889 27.9702 13.6889C24.7283 13.6889 22.3117 14.1037 20.7202 14.9333C19.1287 15.763 18.333 17.037 18.333 18.7556C18.333 19.5852 18.5982 20.3259 19.1287 20.9778C19.7182 21.5704 20.9265 22.1926 22.7537 22.8444C24.6399 23.437 27.4692 24.2667 31.2416 25.3333C36.0749 26.5185 39.8767 27.9407 42.6471 29.6C45.4174 31.2593 47.392 33.2148 48.5709 35.4667C49.7497 37.6593 50.3392 40.3259 50.3392 43.4667C50.3392 48.1481 49.1898 52 46.891 55.0222C44.5922 58.0444 41.4977 60.2963 37.6074 61.7778C33.7172 63.2593 29.3554 64 24.522 64Z" fill="#025BFF"/>
<path d="M80.2327 64.0001V15.4667H60.3394V1.77783H115.599V15.4667H95.7937V64.0001H80.2327Z" fill="#025BFF"/>
<path d="M154.068 64C148.233 64 143.164 62.963 138.861 60.8889C134.617 58.8148 131.346 55.8519 129.047 52C126.748 48.0889 125.599 43.4074 125.599 37.9556V0.888916H141.16V35.7334C141.16 40.8297 142.339 44.3852 144.696 46.4C147.054 48.3556 150.355 49.3334 154.599 49.3334C158.843 49.3334 162.084 48.3556 164.324 46.4C166.623 44.3852 167.773 40.8297 167.773 35.7334V0.888916H182.803V37.9556C182.803 43.4074 181.595 48.0889 179.178 52C176.82 55.8519 173.49 58.8148 169.187 60.8889C164.884 62.963 159.845 64 154.068 64Z" fill="#025BFF"/>
<path d="M195.803 63.0001V0.777832H219.852C226.571 0.777832 232.436 1.93339 237.446 4.2445C242.456 6.55561 246.347 10.0223 249.117 14.6445C251.946 19.2667 253.361 25.0445 253.361 31.9778C253.361 38.4964 251.976 44.0964 249.205 48.7778C246.435 53.4001 242.486 56.926 237.358 59.3556C232.23 61.7852 226.158 63.0001 219.144 63.0001H195.803ZM211.364 49.3112H219.409C223.477 49.3112 226.836 48.6593 229.489 47.3556C232.141 46.0519 234.116 44.126 235.413 41.5778C236.768 39.0297 237.446 35.8297 237.446 31.9778C237.446 27.7112 236.798 24.3038 235.501 21.7556C234.263 19.2075 232.318 17.3704 229.666 16.2445C227.013 15.0593 223.594 14.4667 219.409 14.4667H211.364V49.3112Z" fill="#025BFF"/>
<path d="M282.885 64L264.361 64L264.361 23.5L282.885 23.5L282.885 64Z" fill="#025BFF"/>
<path fill-rule="evenodd" clip-rule="evenodd" d="M341.449 32.25C341.449 22.9992 333.94 15.5 324.677 15.5C315.414 15.5 307.905 22.9992 307.905 32.25C307.905 41.5008 315.414 49 324.677 49C333.94 49 341.449 41.5008 341.449 32.25ZM356.469 32.25C356.469 14.715 342.235 0.499998 324.677 0.499999C307.119 0.499999 292.885 14.715 292.885 32.25C292.885 49.785 307.119 64 324.677 64C342.235 64 356.469 49.785 356.469 32.25Z" fill="#025BFF"/>
</svg>
