<svg style="display: none;" aria-hidden="true" xmlns="http://www.w3.org/2000/svg"><defs/><symbol preserveAspectRatio="xMidYMid meet" id="symbol-studio" viewBox="0 0 358 64" aria-labelledby="studio-icon" role="img"><path fill="currentColor" d="M24.522 64c-3.242 0-6.425-.237-9.549-.711a79.185 79.185 0 0 1-9.195-1.956l-5.393-1.51 2.475-12 6.985 1.066c2.063.296 4.45.592 7.162.889 2.77.237 5.481.355 8.134.355 3.065 0 5.275-.415 6.631-1.244 1.415-.889 2.122-2.133 2.122-3.733 0-.89-.236-1.66-.707-2.312-.472-.651-1.562-1.333-3.272-2.044-1.65-.77-4.244-1.689-7.78-2.756-4.893-1.481-8.783-2.992-11.67-4.533-2.89-1.6-4.952-3.526-6.19-5.778-1.179-2.31-1.768-5.244-1.768-8.8 0-4.444 1.09-8.059 3.271-10.844 2.24-2.785 5.276-4.83 9.107-6.133C18.775.652 23.137 0 27.97 0c2.712 0 5.482.207 8.311.622A71.071 71.071 0 0 1 44.857 2.4l4.244 1.067-2.21 11.822-6.72-.8a220.056 220.056 0 0 0-5.481-.533c-2.004-.178-4.244-.267-6.72-.267-3.242 0-5.658.415-7.25 1.244-1.591.83-2.387 2.104-2.387 3.823 0 .83.265 1.57.796 2.222.59.592 1.797 1.215 3.625 1.866 1.886.593 4.715 1.423 8.488 2.49 4.833 1.185 8.635 2.607 11.405 4.266 2.77 1.66 4.745 3.615 5.924 5.867 1.179 2.192 1.768 4.859 1.768 8 0 4.681-1.15 8.533-3.448 11.555-2.299 3.022-5.393 5.274-9.284 6.756C33.717 63.259 29.355 64 24.522 64ZM80.233 64V15.467H60.339V1.777h55.26v13.69H95.794V64H80.233ZM154.068 64c-5.835 0-10.904-1.037-15.207-3.111-4.244-2.074-7.515-5.037-9.814-8.889-2.299-3.911-3.448-8.593-3.448-14.044V.889h15.561v34.844c0 5.097 1.179 8.652 3.536 10.667 2.358 1.956 5.659 2.933 9.903 2.933 4.244 0 7.485-.977 9.725-2.933 2.299-2.015 3.449-5.57 3.449-10.667V.89h15.03v37.067c0 5.451-1.208 10.133-3.625 14.044-2.358 3.852-5.688 6.815-9.991 8.889-4.303 2.074-9.342 3.111-15.119 3.111ZM195.803 63V.778h24.049c6.719 0 12.584 1.155 17.594 3.467 5.01 2.31 8.901 5.777 11.671 10.4 2.829 4.622 4.244 10.4 4.244 17.333 0 6.518-1.385 12.118-4.156 16.8-2.77 4.622-6.719 8.148-11.847 10.578-5.128 2.43-11.2 3.644-18.214 3.644h-23.341Zm15.561-13.689h8.045c4.068 0 7.427-.652 10.08-1.955 2.652-1.304 4.627-3.23 5.924-5.778 1.355-2.548 2.033-5.748 2.033-9.6 0-4.267-.648-7.674-1.945-10.222-1.238-2.549-3.183-4.386-5.835-5.512-2.653-1.185-6.072-1.777-10.257-1.777h-8.045V49.31ZM282.885 64h-18.524V23.5h18.524V64Z"/><path fill="currentColor" fill-rule="evenodd" d="M341.449 32.25c0-9.25-7.509-16.75-16.772-16.75-9.263 0-16.772 7.5-16.772 16.75S315.414 49 324.677 49c9.263 0 16.772-7.5 16.772-16.75Zm15.02 0c0-17.535-14.234-31.75-31.792-31.75s-31.792 14.215-31.792 31.75S307.119 64 324.677 64s31.792-14.215 31.792-31.75Z" clip-rule="evenodd"/></symbol><symbol id="symbol-io" viewBox="0 0 94 64" aria-labelledby="io-icon" role="img"><path fill="currentColor" d="M18.608 63.75H.084v-40.5h18.524v40.5Z"/><path fill="currentColor" fill-rule="evenodd" d="M78.173 32c0-9.25-7.51-16.75-16.773-16.75S44.628 22.75 44.628 32s7.51 16.75 16.772 16.75c9.263 0 16.773-7.5 16.773-16.75Zm15.02 0C93.192 14.465 78.958.25 61.4.25 43.842.25 29.608 14.465 29.608 32S43.842 63.75 61.4 63.75c17.559 0 31.792-14.215 31.792-31.75Z" clip-rule="evenodd"/></symbol></svg>